<svg xmlns="http://www.w3.org/2000/svg" xmlns:xlink="http://www.w3.org/1999/xlink" contentStyleType="text/css" data-diagram-type="SEQUENCE" height="968px" preserveAspectRatio="none" style="width:2554px;height:968px;background:#FFFFFF;" version="1.1" viewBox="0 0 2554 968" width="2554px" zoomAndPan="magnify"><defs/><g><rect fill="none" height="103.3984" style="stroke:#000000;stroke-width:1.5;" width="2225.3916" x="78.2979" y="214.8281"/><rect fill="none" height="46.2656" style="stroke:#000000;stroke-width:1.5;" width="894.8804" x="1135.9819" y="604.2891"/><rect fill="none" height="75.3984" style="stroke:#000000;stroke-width:1.5;" width="1979.5371" x="568.6387" y="722.8203"/><g><title>User</title><rect fill="#000000" fill-opacity="0.00000" height="806.1875" width="8" x="19.9551" y="81.2969"/><line style="stroke:#181818;stroke-width:0.5;stroke-dasharray:5.0,5.0;" x1="23" x2="23" y1="81.2969" y2="887.4844"/></g><g><title>Bot</title><rect fill="#000000" fill-opacity="0.00000" height="806.1875" width="8" x="183.0259" y="81.2969"/><line style="stroke:#181818;stroke-width:0.5;stroke-dasharray:5.0,5.0;" x1="186.2979" x2="186.2979" y1="81.2969" y2="887.4844"/></g><g><title>Fastify Route</title><rect fill="#000000" fill-opacity="0.00000" height="806.1875" width="8" x="470.3711" y="81.2969"/><line style="stroke:#181818;stroke-width:0.5;stroke-dasharray:5.0,5.0;" x1="474.1831" x2="474.1831" y1="81.2969" y2="887.4844"/></g><g><title>walletController</title><rect fill="#000000" fill-opacity="0.00000" height="806.1875" width="8" x="637.1807" y="81.2969"/><line style="stroke:#181818;stroke-width:0.5;stroke-dasharray:5.0,5.0;" x1="640.6387" x2="640.6387" y1="81.2969" y2="887.4844"/></g><g><title>validationHelper</title><rect fill="#000000" fill-opacity="0.00000" height="806.1875" width="8" x="911.1958" y="81.2969"/><line style="stroke:#181818;stroke-width:0.5;stroke-dasharray:5.0,5.0;" x1="914.5894" x2="914.5894" y1="81.2969" y2="887.4844"/></g><g><title>mongoUserService</title><rect fill="#000000" fill-opacity="0.00000" height="806.1875" width="8" x="1058.8921" y="81.2969"/><line style="stroke:#181818;stroke-width:0.5;stroke-dasharray:5.0,5.0;" x1="1062.8022" x2="1062.8022" y1="81.2969" y2="887.4844"/></g><g><title>userService</title><rect fill="#000000" fill-opacity="0.00000" height="806.1875" width="8" x="1190.1206" y="81.2969"/><line style="stroke:#181818;stroke-width:0.5;stroke-dasharray:5.0,5.0;" x1="1193.9819" x2="1193.9819" y1="81.2969" y2="887.4844"/></g><g><title>formatHelper</title><rect fill="#000000" fill-opacity="0.00000" height="806.1875" width="8" x="1510.6133" y="81.2969"/><line style="stroke:#181818;stroke-width:0.5;stroke-dasharray:5.0,5.0;" x1="1513.9922" x2="1513.9922" y1="81.2969" y2="887.4844"/></g><g><title>predictWalletService</title><rect fill="#000000" fill-opacity="0.00000" height="806.1875" width="8" x="1653.8662" y="81.2969"/><line style="stroke:#181818;stroke-width:0.5;stroke-dasharray:5.0,5.0;" x1="1657.2344" x2="1657.2344" y1="81.2969" y2="887.4844"/></g><g><title>userModel</title><rect fill="#000000" fill-opacity="0.00000" height="806.1875" width="8" x="1786.7832" y="81.2969"/><line style="stroke:#181818;stroke-width:0.5;stroke-dasharray:5.0,5.0;" x1="1790.498" x2="1790.498" y1="81.2969" y2="887.4844"/></g><g><title>pushService</title><rect fill="#000000" fill-opacity="0.00000" height="806.1875" width="8" x="1967.0283" y="81.2969"/><line style="stroke:#181818;stroke-width:0.5;stroke-dasharray:5.0,5.0;" x1="1970.1943" x2="1970.1943" y1="81.2969" y2="887.4844"/></g><g><title>notificationHelper</title><rect fill="#000000" fill-opacity="0.00000" height="806.1875" width="8" x="2096.3701" y="81.2969"/><line style="stroke:#181818;stroke-width:0.5;stroke-dasharray:5.0,5.0;" x1="2099.8623" x2="2099.8623" y1="81.2969" y2="887.4844"/></g><g><title>requestHelper</title><rect fill="#000000" fill-opacity="0.00000" height="806.1875" width="8" x="2232.7837" y="81.2969"/><line style="stroke:#181818;stroke-width:0.5;stroke-dasharray:5.0,5.0;" x1="2235.8779" x2="2235.8779" y1="81.2969" y2="887.4844"/></g><g><title>predictWalletService (dev only)</title><rect fill="#000000" fill-opacity="0.00000" height="806.1875" width="8" x="2416.9326" y="81.2969"/><line style="stroke:#181818;stroke-width:0.5;stroke-dasharray:5.0,5.0;" x1="2420.6895" x2="2420.6895" y1="81.2969" y2="887.4844"/></g><g class="participant participant-head" data-participant="User"><text fill="#000000" font-family="sans-serif" font-size="14" lengthAdjust="spacing" textLength="31.9102" x="5" y="77.9951">User</text><ellipse cx="23.9551" cy="13.5" fill="#E2E2F0" rx="8" ry="8" style="stroke:#181818;stroke-width:0.5;"/><path d="M23.9551,21.5 L23.9551,48.5 M10.9551,29.5 L36.9551,29.5 M23.9551,48.5 L10.9551,63.5 M23.9551,48.5 L36.9551,63.5" fill="none" style="stroke:#181818;stroke-width:0.5;"/></g><g class="participant participant-tail" data-participant="User"><text fill="#000000" font-family="sans-serif" font-size="14" lengthAdjust="spacing" textLength="31.9102" x="5" y="899.4795">User</text><ellipse cx="23.9551" cy="911.2813" fill="#E2E2F0" rx="8" ry="8" style="stroke:#181818;stroke-width:0.5;"/><path d="M23.9551,919.2813 L23.9551,946.2813 M10.9551,927.2813 L36.9551,927.2813 M23.9551,946.2813 L10.9551,961.2813 M23.9551,946.2813 L36.9551,961.2813" fill="none" style="stroke:#181818;stroke-width:0.5;"/></g><g class="participant participant-head" data-participant="FE"><rect fill="#E2E2F0" height="46.5938" rx="2.5" ry="2.5" style="stroke:#181818;stroke-width:0.5;" width="197.4561" x="88.2979" y="33.7031"/><text fill="#000000" font-family="sans-serif" font-size="14" lengthAdjust="spacing" textLength="23.6592" x="175.1963" y="53.6982">Bot</text><text fill="#000000" font-family="sans-serif" font-size="14" lengthAdjust="spacing" textLength="183.4561" x="95.2979" y="69.9951">(Whatsapp/LLM/Chatizalo)</text></g><g class="participant participant-tail" data-participant="FE"><rect fill="#E2E2F0" height="46.5938" rx="2.5" ry="2.5" style="stroke:#181818;stroke-width:0.5;" width="197.4561" x="88.2979" y="886.4844"/><text fill="#000000" font-family="sans-serif" font-size="14" lengthAdjust="spacing" textLength="23.6592" x="175.1963" y="906.4795">Bot</text><text fill="#000000" font-family="sans-serif" font-size="14" lengthAdjust="spacing" textLength="183.4561" x="95.2979" y="922.7764">(Whatsapp/LLM/Chatizalo)</text></g><g class="participant participant-head" data-participant="Route"><rect fill="#E2E2F0" height="46.5938" rx="2.5" ry="2.5" style="stroke:#181818;stroke-width:0.5;" width="112.376" x="418.1831" y="33.7031"/><text fill="#000000" font-family="sans-serif" font-size="14" lengthAdjust="spacing" textLength="92.2373" x="428.2524" y="53.6982">Fastify Route</text><text fill="#000000" font-family="sans-serif" font-size="14" lengthAdjust="spacing" textLength="98.376" x="425.1831" y="69.9951">/create_wallet</text></g><g class="participant participant-tail" data-participant="Route"><rect fill="#E2E2F0" height="46.5938" rx="2.5" ry="2.5" style="stroke:#181818;stroke-width:0.5;" width="112.376" x="418.1831" y="886.4844"/><text fill="#000000" font-family="sans-serif" font-size="14" lengthAdjust="spacing" textLength="92.2373" x="428.2524" y="906.4795">Fastify Route</text><text fill="#000000" font-family="sans-serif" font-size="14" lengthAdjust="spacing" textLength="98.376" x="425.1831" y="922.7764">/create_wallet</text></g><g class="participant participant-head" data-participant="Controller"><rect fill="#E2E2F0" height="30.2969" rx="2.5" ry="2.5" style="stroke:#181818;stroke-width:0.5;" width="125.084" x="578.6387" y="50"/><text fill="#000000" font-family="sans-serif" font-size="14" lengthAdjust="spacing" textLength="111.084" x="585.6387" y="69.9951">walletController</text></g><g class="participant participant-tail" data-participant="Controller"><rect fill="#E2E2F0" height="30.2969" rx="2.5" ry="2.5" style="stroke:#181818;stroke-width:0.5;" width="125.084" x="578.6387" y="886.4844"/><text fill="#000000" font-family="sans-serif" font-size="14" lengthAdjust="spacing" textLength="111.084" x="585.6387" y="906.4795">walletController</text></g><g class="participant participant-head" data-participant="Validator"><rect fill="#E2E2F0" height="30.2969" rx="2.5" ry="2.5" style="stroke:#181818;stroke-width:0.5;" width="129.2129" x="850.5894" y="50"/><text fill="#000000" font-family="sans-serif" font-size="14" lengthAdjust="spacing" textLength="115.2129" x="857.5894" y="69.9951">validationHelper</text></g><g class="participant participant-tail" data-participant="Validator"><rect fill="#E2E2F0" height="30.2969" rx="2.5" ry="2.5" style="stroke:#181818;stroke-width:0.5;" width="129.2129" x="850.5894" y="886.4844"/><text fill="#000000" font-family="sans-serif" font-size="14" lengthAdjust="spacing" textLength="115.2129" x="857.5894" y="906.4795">validationHelper</text></g><g class="participant participant-head" data-participant="MongoService"><rect fill="#E2E2F0" height="30.2969" rx="2.5" ry="2.5" style="stroke:#181818;stroke-width:0.5;" width="146.1797" x="989.8022" y="50"/><text fill="#000000" font-family="sans-serif" font-size="14" lengthAdjust="spacing" textLength="132.1797" x="996.8022" y="69.9951">mongoUserService</text></g><g class="participant participant-tail" data-participant="MongoService"><rect fill="#E2E2F0" height="30.2969" rx="2.5" ry="2.5" style="stroke:#181818;stroke-width:0.5;" width="146.1797" x="989.8022" y="886.4844"/><text fill="#000000" font-family="sans-serif" font-size="14" lengthAdjust="spacing" textLength="132.1797" x="996.8022" y="906.4795">mongoUserService</text></g><g class="participant participant-head" data-participant="UserService"><rect fill="#E2E2F0" height="30.2969" rx="2.5" ry="2.5" style="stroke:#181818;stroke-width:0.5;" width="96.2773" x="1145.9819" y="50"/><text fill="#000000" font-family="sans-serif" font-size="14" lengthAdjust="spacing" textLength="82.2773" x="1152.9819" y="69.9951">userService</text></g><g class="participant participant-tail" data-participant="UserService"><rect fill="#E2E2F0" height="30.2969" rx="2.5" ry="2.5" style="stroke:#181818;stroke-width:0.5;" width="96.2773" x="1145.9819" y="886.4844"/><text fill="#000000" font-family="sans-serif" font-size="14" lengthAdjust="spacing" textLength="82.2773" x="1152.9819" y="906.4795">userService</text></g><g class="participant participant-head" data-participant="Formatter"><rect fill="#E2E2F0" height="30.2969" rx="2.5" ry="2.5" style="stroke:#181818;stroke-width:0.5;" width="107.2422" x="1460.9922" y="50"/><text fill="#000000" font-family="sans-serif" font-size="14" lengthAdjust="spacing" textLength="93.2422" x="1467.9922" y="69.9951">formatHelper</text></g><g class="participant participant-tail" data-participant="Formatter"><rect fill="#E2E2F0" height="30.2969" rx="2.5" ry="2.5" style="stroke:#181818;stroke-width:0.5;" width="107.2422" x="1460.9922" y="886.4844"/><text fill="#000000" font-family="sans-serif" font-size="14" lengthAdjust="spacing" textLength="93.2422" x="1467.9922" y="906.4795">formatHelper</text></g><g class="participant participant-head" data-participant="WalletPredictor"><rect fill="#E2E2F0" height="30.2969" rx="2.5" ry="2.5" style="stroke:#181818;stroke-width:0.5;" width="159.2637" x="1578.2344" y="50"/><text fill="#000000" font-family="sans-serif" font-size="14" lengthAdjust="spacing" textLength="145.2637" x="1585.2344" y="69.9951">predictWalletService</text></g><g class="participant participant-tail" data-participant="WalletPredictor"><rect fill="#E2E2F0" height="30.2969" rx="2.5" ry="2.5" style="stroke:#181818;stroke-width:0.5;" width="159.2637" x="1578.2344" y="886.4844"/><text fill="#000000" font-family="sans-serif" font-size="14" lengthAdjust="spacing" textLength="145.2637" x="1585.2344" y="906.4795">predictWalletService</text></g><g class="participant participant-head" data-participant="UserModel"><rect fill="#E2E2F0" height="30.2969" rx="2.5" ry="2.5" style="stroke:#181818;stroke-width:0.5;" width="86.5703" x="1747.498" y="50"/><text fill="#000000" font-family="sans-serif" font-size="14" lengthAdjust="spacing" textLength="72.5703" x="1754.498" y="69.9951">userModel</text></g><g class="participant participant-tail" data-participant="UserModel"><rect fill="#E2E2F0" height="30.2969" rx="2.5" ry="2.5" style="stroke:#181818;stroke-width:0.5;" width="86.5703" x="1747.498" y="886.4844"/><text fill="#000000" font-family="sans-serif" font-size="14" lengthAdjust="spacing" textLength="72.5703" x="1754.498" y="906.4795">userModel</text></g><g class="participant participant-head" data-participant="PushService"><rect fill="#E2E2F0" height="30.2969" rx="2.5" ry="2.5" style="stroke:#181818;stroke-width:0.5;" width="99.668" x="1921.1943" y="50"/><text fill="#000000" font-family="sans-serif" font-size="14" lengthAdjust="spacing" textLength="85.668" x="1928.1943" y="69.9951">pushService</text></g><g class="participant participant-tail" data-participant="PushService"><rect fill="#E2E2F0" height="30.2969" rx="2.5" ry="2.5" style="stroke:#181818;stroke-width:0.5;" width="99.668" x="1921.1943" y="886.4844"/><text fill="#000000" font-family="sans-serif" font-size="14" lengthAdjust="spacing" textLength="85.668" x="1928.1943" y="906.4795">pushService</text></g><g class="participant participant-head" data-participant="Notifier"><rect fill="#E2E2F0" height="30.2969" rx="2.5" ry="2.5" style="stroke:#181818;stroke-width:0.5;" width="139.0156" x="2030.8623" y="50"/><text fill="#000000" font-family="sans-serif" font-size="14" lengthAdjust="spacing" textLength="125.0156" x="2037.8623" y="69.9951">notificationHelper</text></g><g class="participant participant-tail" data-participant="Notifier"><rect fill="#E2E2F0" height="30.2969" rx="2.5" ry="2.5" style="stroke:#181818;stroke-width:0.5;" width="139.0156" x="2030.8623" y="886.4844"/><text fill="#000000" font-family="sans-serif" font-size="14" lengthAdjust="spacing" textLength="125.0156" x="2037.8623" y="906.4795">notificationHelper</text></g><g class="participant participant-head" data-participant="Response"><rect fill="#E2E2F0" height="30.2969" rx="2.5" ry="2.5" style="stroke:#181818;stroke-width:0.5;" width="113.8115" x="2179.8779" y="50"/><text fill="#000000" font-family="sans-serif" font-size="14" lengthAdjust="spacing" textLength="99.8115" x="2186.8779" y="69.9951">requestHelper</text></g><g class="participant participant-tail" data-participant="Response"><rect fill="#E2E2F0" height="30.2969" rx="2.5" ry="2.5" style="stroke:#181818;stroke-width:0.5;" width="113.8115" x="2179.8779" y="886.4844"/><text fill="#000000" font-family="sans-serif" font-size="14" lengthAdjust="spacing" textLength="99.8115" x="2186.8779" y="906.4795">requestHelper</text></g><g class="participant participant-head" data-participant="TokenIssuer"><rect fill="#E2E2F0" height="30.2969" rx="2.5" ry="2.5" style="stroke:#181818;stroke-width:0.5;" width="234.4863" x="2303.6895" y="50"/><text fill="#000000" font-family="sans-serif" font-size="14" lengthAdjust="spacing" textLength="220.4863" x="2310.6895" y="69.9951">predictWalletService (dev only)</text></g><g class="participant participant-tail" data-participant="TokenIssuer"><rect fill="#E2E2F0" height="30.2969" rx="2.5" ry="2.5" style="stroke:#181818;stroke-width:0.5;" width="234.4863" x="2303.6895" y="886.4844"/><text fill="#000000" font-family="sans-serif" font-size="14" lengthAdjust="spacing" textLength="220.4863" x="2310.6895" y="906.4795">predictWalletService (dev only)</text></g><g class="message" data-participant-1="User" data-participant-2="FE"><polygon fill="#181818" points="175.0259,108.4297,185.0259,112.4297,175.0259,116.4297,179.0259,112.4297" style="stroke:#181818;stroke-width:1;"/><line style="stroke:#181818;stroke-width:1;" x1="23.9551" x2="181.0259" y1="112.4297" y2="112.4297"/><text fill="#000000" font-family="sans-serif" font-size="13" lengthAdjust="spacing" textLength="139.0708" x="30.9551" y="107.3638">Starts wallet creation</text></g><g class="message" data-participant-1="FE" data-participant-2="Route"><polygon fill="#181818" points="462.3711,137.5625,472.3711,141.5625,462.3711,145.5625,466.3711,141.5625" style="stroke:#181818;stroke-width:1;"/><line style="stroke:#181818;stroke-width:1;" x1="187.0259" x2="468.3711" y1="141.5625" y2="141.5625"/><text fill="#000000" font-family="sans-serif" font-size="13" lengthAdjust="spacing" textLength="263.3452" x="194.0259" y="136.4966">POST /create_wallet { channel_user_id }</text></g><g class="message" data-participant-1="Route" data-participant-2="Controller"><polygon fill="#181818" points="629.1807,166.6953,639.1807,170.6953,629.1807,174.6953,633.1807,170.6953" style="stroke:#181818;stroke-width:1;"/><line style="stroke:#181818;stroke-width:1;" x1="474.3711" x2="635.1807" y1="170.6953" y2="170.6953"/><text fill="#000000" font-family="sans-serif" font-size="13" lengthAdjust="spacing" textLength="142.8096" x="481.3711" y="165.6294">createWallet(req, res)</text></g><g class="message" data-participant-1="Controller" data-participant-2="Validator"><polygon fill="#181818" points="903.1958,195.8281,913.1958,199.8281,903.1958,203.8281,907.1958,199.8281" style="stroke:#181818;stroke-width:1;"/><line style="stroke:#181818;stroke-width:1;" x1="641.1807" x2="909.1958" y1="199.8281" y2="199.8281"/><text fill="#000000" font-family="sans-serif" font-size="13" lengthAdjust="spacing" textLength="250.0151" x="648.1807" y="194.7622">isValidPhoneNumber(channel_user_id)</text></g><path d="M78.2979,214.8281 L142.7407,214.8281 L142.7407,221.9609 L132.7407,231.9609 L78.2979,231.9609 L78.2979,214.8281" fill="#EEEEEE" style="stroke:#000000;stroke-width:1.5;"/><rect fill="none" height="103.3984" style="stroke:#000000;stroke-width:1.5;" width="2225.3916" x="78.2979" y="214.8281"/><text fill="#000000" font-family="sans-serif" font-size="13" font-weight="bold" lengthAdjust="spacing" textLength="19.4429" x="93.2979" y="227.895">alt</text><text fill="#000000" font-family="sans-serif" font-size="11" font-weight="bold" lengthAdjust="spacing" textLength="146.083" x="157.7407" y="227.0386">[Invalid phone number]</text><g class="message" data-participant-1="Controller" data-participant-2="Response"><polygon fill="#181818" points="2224.7837,249.0938,2234.7837,253.0938,2224.7837,257.0938,2228.7837,253.0938" style="stroke:#181818;stroke-width:1;"/><line style="stroke:#181818;stroke-width:1;" x1="641.1807" x2="2230.7837" y1="253.0938" y2="253.0938"/><text fill="#000000" font-family="sans-serif" font-size="13" lengthAdjust="spacing" textLength="170.4409" x="648.1807" y="248.0278">returnErrorResponse(400)</text></g><g class="message" data-participant-1="Response" data-participant-2="Route"><polygon fill="#181818" points="485.3711,263.0938,475.3711,267.0938,485.3711,271.0938,481.3711,267.0938" style="stroke:#181818;stroke-width:1;"/><line style="stroke:#181818;stroke-width:1;stroke-dasharray:2.0,2.0;" x1="479.3711" x2="2235.7837" y1="267.0938" y2="267.0938"/></g><g class="message" data-participant-1="Route" data-participant-2="FE"><polygon fill="#181818" points="198.0259,292.2266,188.0259,296.2266,198.0259,300.2266,194.0259,296.2266" style="stroke:#181818;stroke-width:1;"/><line style="stroke:#181818;stroke-width:1;stroke-dasharray:2.0,2.0;" x1="192.0259" x2="473.3711" y1="296.2266" y2="296.2266"/><text fill="#000000" font-family="sans-serif" font-size="13" lengthAdjust="spacing" textLength="149.2334" x="204.0259" y="291.1606">HTTP 400 Bad Request</text></g><g class="message" data-participant-1="FE" data-participant-2="Route"><polygon fill="#181818" points="462.3711,306.2266,472.3711,310.2266,462.3711,314.2266,466.3711,310.2266" style="stroke:#181818;stroke-width:1;"/><line style="stroke:#181818;stroke-width:1;stroke-dasharray:2.0,2.0;" x1="187.0259" x2="468.3711" y1="310.2266" y2="310.2266"/></g><g class="message" data-participant-1="Controller" data-participant-2="UserService"><polygon fill="#181818" points="1182.1206,342.3594,1192.1206,346.3594,1182.1206,350.3594,1186.1206,346.3594" style="stroke:#181818;stroke-width:1;"/><line style="stroke:#181818;stroke-width:1;" x1="641.1807" x2="1188.1206" y1="346.3594" y2="346.3594"/><text fill="#000000" font-family="sans-serif" font-size="13" lengthAdjust="spacing" textLength="460.7446" x="648.1807" y="341.2935">createUserWithWallet(channel_user_id, proxyAddress, factoryAddress)</text></g><g class="message" data-participant-1="UserService" data-participant-2="Formatter"><polygon fill="#181818" points="1502.6133,371.4922,1512.6133,375.4922,1502.6133,379.4922,1506.6133,375.4922" style="stroke:#181818;stroke-width:1;"/><line style="stroke:#181818;stroke-width:1;" x1="1194.1206" x2="1508.6133" y1="375.4922" y2="375.4922"/><text fill="#000000" font-family="sans-serif" font-size="13" lengthAdjust="spacing" textLength="296.4927" x="1201.1206" y="370.4263">getPhoneNumberFormatted(channel_user_id)</text></g><g class="message" data-participant-1="UserService" data-participant-2="WalletPredictor"><polygon fill="#181818" points="1645.8662,400.625,1655.8662,404.625,1645.8662,408.625,1649.8662,404.625" style="stroke:#181818;stroke-width:1;"/><line style="stroke:#181818;stroke-width:1;" x1="1194.1206" x2="1651.8662" y1="404.625" y2="404.625"/><text fill="#000000" font-family="sans-serif" font-size="13" lengthAdjust="spacing" textLength="270.6958" x="1201.1206" y="399.5591">computeProxyAddressFromPhone(phone)</text></g><g class="message" data-participant-1="WalletPredictor" data-participant-2="UserService"><polygon fill="#181818" points="1205.1206,429.7578,1195.1206,433.7578,1205.1206,437.7578,1201.1206,433.7578" style="stroke:#181818;stroke-width:1;"/><line style="stroke:#181818;stroke-width:1;stroke-dasharray:2.0,2.0;" x1="1199.1206" x2="1656.8662" y1="433.7578" y2="433.7578"/><text fill="#000000" font-family="sans-serif" font-size="13" lengthAdjust="spacing" textLength="252.1353" x="1211.1206" y="428.6919">proxyAddress, eoaAddress, privateKey</text></g><g class="message" data-participant-1="UserService" data-participant-2="UserModel"><polygon fill="#181818" points="1778.7832,458.8906,1788.7832,462.8906,1778.7832,466.8906,1782.7832,462.8906" style="stroke:#181818;stroke-width:1;"/><line style="stroke:#181818;stroke-width:1;" x1="1194.1206" x2="1784.7832" y1="462.8906" y2="462.8906"/><text fill="#000000" font-family="sans-serif" font-size="13" lengthAdjust="spacing" textLength="147.0117" x="1201.1206" y="457.8247">new UserModel({ ... })</text></g><g class="message" data-participant-1="UserModel" data-participant-2="UserModel"><line style="stroke:#181818;stroke-width:1;" x1="1790.7832" x2="1832.7832" y1="492.0234" y2="492.0234"/><line style="stroke:#181818;stroke-width:1;" x1="1832.7832" x2="1832.7832" y1="492.0234" y2="505.0234"/><line style="stroke:#181818;stroke-width:1;" x1="1791.7832" x2="1832.7832" y1="505.0234" y2="505.0234"/><polygon fill="#181818" points="1801.7832,501.0234,1791.7832,505.0234,1801.7832,509.0234,1797.7832,505.0234" style="stroke:#181818;stroke-width:1;"/><text fill="#000000" font-family="sans-serif" font-size="13" lengthAdjust="spacing" textLength="40.5742" x="1797.7832" y="486.9575">save()</text></g><g class="message" data-participant-1="UserModel" data-participant-2="UserModel"><line style="stroke:#181818;stroke-width:1;" x1="1790.7832" x2="1832.7832" y1="534.1563" y2="534.1563"/><line style="stroke:#181818;stroke-width:1;" x1="1832.7832" x2="1832.7832" y1="534.1563" y2="547.1563"/><line style="stroke:#181818;stroke-width:1;" x1="1791.7832" x2="1832.7832" y1="547.1563" y2="547.1563"/><polygon fill="#181818" points="1801.7832,543.1563,1791.7832,547.1563,1801.7832,551.1563,1797.7832,547.1563" style="stroke:#181818;stroke-width:1;"/><text fill="#000000" font-family="sans-serif" font-size="13" lengthAdjust="spacing" textLength="166.2451" x="1797.7832" y="529.0903">update(manteca_user_id)</text></g><g class="message" data-participant-1="UserModel" data-participant-2="UserModel"><line style="stroke:#181818;stroke-width:1;" x1="1790.7832" x2="1832.7832" y1="576.2891" y2="576.2891"/><line style="stroke:#181818;stroke-width:1;" x1="1832.7832" x2="1832.7832" y1="576.2891" y2="589.2891"/><line style="stroke:#181818;stroke-width:1;" x1="1791.7832" x2="1832.7832" y1="589.2891" y2="589.2891"/><polygon fill="#181818" points="1801.7832,585.2891,1791.7832,589.2891,1801.7832,593.2891,1797.7832,589.2891" style="stroke:#181818;stroke-width:1;"/><text fill="#000000" font-family="sans-serif" font-size="13" lengthAdjust="spacing" textLength="40.5742" x="1797.7832" y="571.2231">save()</text></g><path d="M1135.9819,604.2891 L1200.4248,604.2891 L1200.4248,611.4219 L1190.4248,621.4219 L1135.9819,621.4219 L1135.9819,604.2891" fill="#EEEEEE" style="stroke:#000000;stroke-width:1.5;"/><rect fill="none" height="46.2656" style="stroke:#000000;stroke-width:1.5;" width="894.8804" x="1135.9819" y="604.2891"/><text fill="#000000" font-family="sans-serif" font-size="13" font-weight="bold" lengthAdjust="spacing" textLength="19.4429" x="1150.9819" y="617.356">alt</text><text fill="#000000" font-family="sans-serif" font-size="11" font-weight="bold" lengthAdjust="spacing" textLength="106.9492" x="1215.4248" y="616.4995">[PUSH_ENABLED]</text><g class="message" data-participant-1="UserService" data-participant-2="PushService"><polygon fill="#181818" points="1959.0283,638.5547,1969.0283,642.5547,1959.0283,646.5547,1963.0283,642.5547" style="stroke:#181818;stroke-width:1;"/><line style="stroke:#181818;stroke-width:1;" x1="1194.1206" x2="1965.0283" y1="642.5547" y2="642.5547"/><text fill="#000000" font-family="sans-serif" font-size="13" lengthAdjust="spacing" textLength="327.5391" x="1201.1206" y="637.4888">subscribeToPushChannel(privateKey, eoaAddress)</text></g><g class="message" data-participant-1="UserService" data-participant-2="Notifier"><polygon fill="#181818" points="2088.3701,674.6875,2098.3701,678.6875,2088.3701,682.6875,2092.3701,678.6875" style="stroke:#181818;stroke-width:1;"/><line style="stroke:#181818;stroke-width:1;" x1="1194.1206" x2="2094.3701" y1="678.6875" y2="678.6875"/><text fill="#000000" font-family="sans-serif" font-size="13" lengthAdjust="spacing" textLength="337.5747" x="1201.1206" y="673.6216">sendWalletCreationNotification(eoaAddress, phone)</text></g><g class="message" data-participant-1="UserService" data-participant-2="Controller"><polygon fill="#181818" points="652.1807,703.8203,642.1807,707.8203,652.1807,711.8203,648.1807,707.8203" style="stroke:#181818;stroke-width:1;"/><line style="stroke:#181818;stroke-width:1;stroke-dasharray:2.0,2.0;" x1="646.1807" x2="1193.1206" y1="707.8203" y2="707.8203"/><text fill="#000000" font-family="sans-serif" font-size="13" lengthAdjust="spacing" textLength="103.1177" x="658.1807" y="702.7544">user with wallet</text></g><path d="M568.6387,722.8203 L633.0815,722.8203 L633.0815,729.9531 L623.0815,739.9531 L568.6387,739.9531 L568.6387,722.8203" fill="#EEEEEE" style="stroke:#000000;stroke-width:1.5;"/><rect fill="none" height="75.3984" style="stroke:#000000;stroke-width:1.5;" width="1979.5371" x="568.6387" y="722.8203"/><text fill="#000000" font-family="sans-serif" font-size="13" font-weight="bold" lengthAdjust="spacing" textLength="19.4429" x="583.6387" y="735.8872">alt</text><text fill="#000000" font-family="sans-serif" font-size="11" font-weight="bold" lengthAdjust="spacing" textLength="309.8262" x="648.0815" y="735.0308">[IS_DEVELOPMENT &amp;&amp; ISSUER_TOKENS_ENABLED]</text><g class="message" data-participant-1="Controller" data-participant-2="TokenIssuer"><polygon fill="#181818" points="2408.9326,757.0859,2418.9326,761.0859,2408.9326,765.0859,2412.9326,761.0859" style="stroke:#181818;stroke-width:1;"/><line style="stroke:#181818;stroke-width:1;" x1="641.1807" x2="2414.9326" y1="761.0859" y2="761.0859"/><text fill="#000000" font-family="sans-serif" font-size="13" lengthAdjust="spacing" textLength="136.6841" x="648.1807" y="756.02">tryIssueTokens(user)</text></g><g class="message" data-participant-1="TokenIssuer" data-participant-2="Controller"><polygon fill="#181818" points="652.1807,786.2188,642.1807,790.2188,652.1807,794.2188,648.1807,790.2188" style="stroke:#181818;stroke-width:1;"/><line style="stroke:#181818;stroke-width:1;stroke-dasharray:2.0,2.0;" x1="646.1807" x2="2419.9326" y1="790.2188" y2="790.2188"/><text fill="#000000" font-family="sans-serif" font-size="13" lengthAdjust="spacing" textLength="37.064" x="658.1807" y="785.1528">result</text></g><g class="message" data-participant-1="Controller" data-participant-2="Response"><polygon fill="#181818" points="2224.7837,822.3516,2234.7837,826.3516,2224.7837,830.3516,2228.7837,826.3516" style="stroke:#181818;stroke-width:1;"/><line style="stroke:#181818;stroke-width:1;" x1="641.1807" x2="2230.7837" y1="826.3516" y2="826.3516"/><text fill="#000000" font-family="sans-serif" font-size="13" lengthAdjust="spacing" textLength="165.7563" x="648.1807" y="821.2856">returnSuccessResponse()</text></g><g class="message" data-participant-1="Response" data-participant-2="Route"><polygon fill="#181818" points="485.3711,836.3516,475.3711,840.3516,485.3711,844.3516,481.3711,840.3516" style="stroke:#181818;stroke-width:1;"/><line style="stroke:#181818;stroke-width:1;stroke-dasharray:2.0,2.0;" x1="479.3711" x2="2235.7837" y1="840.3516" y2="840.3516"/></g><g class="message" data-participant-1="Route" data-participant-2="FE"><polygon fill="#181818" points="198.0259,865.4844,188.0259,869.4844,198.0259,873.4844,194.0259,869.4844" style="stroke:#181818;stroke-width:1;"/><line style="stroke:#181818;stroke-width:1;stroke-dasharray:2.0,2.0;" x1="192.0259" x2="473.3711" y1="869.4844" y2="869.4844"/><text fill="#000000" font-family="sans-serif" font-size="13" lengthAdjust="spacing" textLength="192.4609" x="204.0259" y="864.4185">HTTP 200 OK (wallet created)</text></g><!--SRC=[XLHDJ-Cm4BtdLumue4JYIwizvR0Ib5GWsXAH0XUaoYG3ZJQrixPJjhlYl-_ORjhOiBivnUCtutdFRynABIJSAvHHowIkoxfbNCF1XT1FF7vSCgrOsvvE9jFJ4ItgNwmHoG4m1UFCpnWpfUkN3To9JkCJFoqbCesBDzOqg6s6tV6JtEv8S2q5_KcBsozzy9erTKKz27w5JRi5FxYW2B0hmL-5eLMWNDSbMkpK1BS17zu5o46c3tmHSiNquFon3UYmrrPYLPVwqV8RLdQHt6s7NPisfgB2PjU4NGMbExKSLiptQn_81Lr8NOQApMmuR5ZYZmxLaDaTgbPmXVyd1d65Qn2ysJXhpCLtvDTATNH8P5Z0yJVoImg5fb8AtAs3TGZr5eqp0x3sI26_BURWkmT-Gxbad6EpC0ejwWhU8mitUNkxfAuakkPYedG44bKIHNkCoTXv9eLQsKM-51ndtUePPHmSbKIiqN3DhVkWDK3W5Xa1VNxbNhEKpjMTv9cKGlR1-ElPMMAJ-WWSzxnTs57QYdKrd-T0AN31AigmrsDXhdI4l0g93MpRQs52ZxLURZK9o1r1AyNFpNbLaKxg25wOCMM_JjpjzRTi-khTdi8hkNYlMhzHVPGlA14C0FKfLYtnpWUDZALOsUAnrJk9WYIhaKVMfu62xVvRMQz9XnlSV62p6x0KEBxjb_5lE3avWNVNkmq5SCNM6Fzzksl9NXYlQ6AmPBuK_oXddPRV5rUBR7P-CSakxNK7JG_6dHAxPrNA-XddmiH7JljuptceHU8i4zJhdmCgHjjEwD5sCcU35oJsH7NNujSAPj6mXZUotdRU7RthOd6PFMIJstoQpUPmU4YHuZwxMynlRx9PuJ7tpJruLLBGScD_RL35vYmtMWFKXuwezwxHdmrEEBT5LvP4T3UvIVJ9o7uohbzeN6zl81w-S5WbVm00]--></g></svg>